<svg version="1.1" id="Layer_1" xmlns="http://www.w3.org/2000/svg" xmlns:xlink="http://www.w3.org/1999/xlink" x="0px" y="0px"
	 width="100%" viewBox="0 0 1125 1839" enable-background="new 0 0 1125 1839" xml:space="preserve">
<path fill="#000000" opacity="1.000000" stroke="none" 
	d="
M947.000000,1840.000000 
	C631.333374,1840.000000 316.166779,1840.000000 1.000127,1840.000000 
	C1.000085,1227.000122 1.000085,614.000305 1.000042,1.000374 
	C375.999756,1.000249 750.999512,1.000249 1125.999512,1.000125 
	C1125.999634,613.999695 1125.999634,1226.999390 1125.999756,1839.999512 
	C1066.500000,1840.000000 1007.000000,1840.000000 947.000000,1840.000000 
M138.113113,874.910889 
	C142.095062,865.188049 146.076996,855.465210 150.139816,845.544922 
	C140.463486,844.133728 126.358665,851.474121 121.791481,860.461792 
	C116.753624,870.375549 112.158546,880.541443 107.942543,890.831909 
	C106.326866,894.775513 104.391708,896.402283 100.263374,895.900452 
	C94.278351,895.173096 88.837524,897.139221 84.623108,901.092346 
	C82.214111,903.351929 79.828445,907.115295 79.959900,910.089966 
	C80.049110,912.108704 84.277321,914.516907 87.094589,915.722961 
	C92.873123,918.196655 93.087547,918.037170 90.428459,923.961792 
	C85.325859,935.330627 80.186539,946.683167 75.013748,958.020264 
	C70.494827,967.924194 72.215530,977.009521 80.357918,984.153564 
	C85.725685,988.863342 91.888458,992.229065 99.239845,992.248962 
	C113.394051,992.287170 127.553482,992.270264 141.702484,991.931091 
	C165.677750,991.356445 189.670105,990.942505 213.609634,989.629089 
	C228.820221,988.794556 239.042694,979.489014 243.458572,965.094910 
	C248.578812,948.404846 253.559921,931.654968 259.374390,915.204224 
	C261.461456,909.299438 260.080963,905.141663 256.428680,901.201477 
	C251.477402,895.860107 245.198181,892.769653 237.828949,892.955566 
	C212.355865,893.598083 186.885468,894.373108 161.419540,895.256042 
	C155.131165,895.474060 148.830353,895.955261 143.287216,899.696838 
	C138.203781,903.128296 134.395386,907.312378 132.774017,913.775757 
	C134.749283,913.888794 136.059311,914.060486 137.363434,914.023560 
	C152.180481,913.604187 166.997055,912.858643 181.812775,912.879822 
	C186.575027,912.886597 191.819595,913.984558 195.977295,916.205139 
	C201.701935,919.262634 201.350754,926.133667 196.361481,930.341187 
	C191.901199,934.102722 186.620026,934.290710 181.279251,934.436462 
	C160.465836,935.004700 139.651672,935.546143 118.836823,936.058716 
	C117.122528,936.100952 115.401031,935.850891 112.787308,935.677063 
	C121.386688,915.109924 129.637405,895.376709 138.113113,874.910889 
M617.342651,907.721130 
	C611.783630,929.648193 606.028320,951.528198 600.763000,973.525574 
	C598.682922,982.215759 602.638428,987.097046 611.602966,988.307007 
	C614.232239,988.661926 616.918823,988.699158 619.579163,988.698730 
	C633.740845,988.696228 647.902527,988.637390 662.064209,988.594543 
	C685.554321,988.523499 709.044983,988.517639 732.534241,988.336548 
	C739.737793,988.281006 744.879761,984.745178 747.471191,977.910706 
	C749.060425,973.719360 750.720337,969.527283 751.899048,965.212769 
	C756.414368,948.684448 760.626587,932.072937 765.195068,915.559692 
	C767.895813,905.797668 763.695984,899.816589 753.459473,899.814392 
	C711.807007,899.805481 670.153992,899.977478 628.502747,899.770386 
	C622.687927,899.741455 619.366272,901.774170 617.342651,907.721130 
M448.491760,907.945923 
	C446.774353,913.138855 444.794312,918.261841 443.388245,923.537781 
	C438.976196,940.093018 434.765106,956.701843 430.509491,973.298584 
	C429.182281,978.474487 430.025452,983.366455 435.020752,985.817261 
	C438.733978,987.639038 443.178589,988.796448 447.305206,988.818970 
	C481.447357,989.004639 515.591553,988.757690 549.734558,988.848694 
	C568.528015,988.898804 573.168274,987.966492 578.994324,965.909485 
	C583.579529,948.550720 587.482483,931.011292 591.649841,913.542847 
	C593.375366,906.310181 588.304871,899.853882 580.574036,899.855225 
	C541.099915,899.862061 501.625671,899.978638 462.151642,900.098633 
	C456.481201,900.115845 451.710907,902.019287 448.491760,907.945923 
M886.501038,899.978638 
	C856.847046,899.938416 827.192261,900.002563 797.539917,899.762390 
	C792.173340,899.718933 789.492615,901.934814 788.378357,906.819824 
	C787.009888,912.819763 785.672424,918.827393 784.232178,924.810242 
	C779.714478,943.577148 775.050293,962.309692 770.675720,981.109741 
	C769.378296,986.685608 770.402954,987.954102 776.187622,988.598938 
	C781.800232,989.224609 787.478394,989.606445 793.121338,989.541687 
	C803.700073,989.420410 805.149536,988.092407 807.786743,977.870605 
	C807.869995,977.547974 807.950195,977.224548 808.030701,976.901245 
	C812.899353,957.363220 817.714294,937.811462 822.726868,918.310486 
	C823.182739,916.536987 824.781189,913.840942 826.066223,913.710327 
	C831.262268,913.182373 836.543335,913.491211 842.218079,913.491211 
	C841.930847,915.572327 841.869812,916.700745 841.611877,917.782227 
	C836.593384,938.820251 831.507568,959.842468 826.542847,980.893127 
	C825.091675,987.046082 825.923523,988.421387 832.344604,988.823242 
	C839.973206,989.300598 847.646790,989.049011 855.300659,989.134705 
	C860.320312,989.190918 863.214966,986.983887 864.440674,981.892273 
	C869.540710,960.706116 874.987793,939.603027 880.002930,918.397400 
	C880.809814,914.985657 881.900269,913.593018 885.436646,913.761047 
	C889.738831,913.965515 894.306641,914.561951 898.334412,913.449402 
	C910.872437,909.986206 923.209717,905.795776 935.624878,901.887390 
	C935.585083,901.250122 935.545288,900.612854 935.505493,899.975586 
	C919.504028,899.975586 903.502563,899.975586 886.501038,899.978638 
M383.492493,988.739746 
	C385.822723,988.699402 388.154205,988.695312 390.482941,988.612488 
	C401.880188,988.207458 403.346771,987.322510 406.882263,976.439026 
	C410.374298,965.689270 413.503052,954.818420 416.621185,943.951843 
	C418.070374,938.901428 416.236755,936.340576 411.031799,935.699097 
	C409.060150,935.456116 407.044647,935.532532 405.048920,935.526428 
	C374.584930,935.432495 344.120605,935.274597 313.657532,935.405884 
	C311.245880,935.416321 308.268951,936.885620 306.539642,938.644897 
	C300.478821,944.811096 294.839661,951.392578 289.058136,957.832214 
	C280.873138,966.948975 272.703949,976.079956 264.527985,985.204834 
	C264.598907,985.802002 264.669800,986.399109 264.740723,986.996216 
	C269.533081,987.614990 274.323608,988.752747 279.118042,988.769409 
	C313.576599,988.888916 348.035919,988.780762 383.492493,988.739746 
M273.099976,925.281860 
	C269.289703,939.930603 265.351685,954.548035 261.748016,969.247437 
	C260.684265,973.586365 259.198975,978.231628 262.150482,982.695862 
	C262.836273,982.263489 263.341309,982.078247 263.660370,981.724976 
	C277.717896,966.158875 291.804321,950.618225 305.735352,934.939514 
	C307.199890,933.291199 308.037598,930.903503 308.654144,928.714661 
	C311.944672,917.032776 315.075043,905.305786 318.255554,893.592957 
	C321.740540,880.758728 325.233337,867.926636 328.696136,855.086426 
	C330.551453,848.206909 327.860535,844.312744 320.843414,843.974915 
	C316.524933,843.766907 312.188599,843.853149 307.861664,843.911377 
	C296.347443,844.066467 296.233246,844.056030 293.104828,854.943481 
	C286.447723,878.111511 279.921906,901.317200 273.099976,925.281860 
M885.967651,978.035217 
	C885.716370,979.171875 885.510742,980.320923 885.205750,981.442993 
	C884.039673,985.732666 884.667786,988.560303 890.064514,988.631226 
	C897.023621,988.722656 903.976196,989.240723 910.934448,989.493713 
	C916.094543,989.681274 918.622742,986.960754 919.834412,982.028381 
	C925.540405,958.799438 931.475342,935.626831 937.273743,912.420349 
	C937.898010,909.921997 938.167053,907.334839 938.669861,904.384583 
	C937.248962,904.548340 936.584351,904.517151 935.992126,904.709229 
	C925.080322,908.248596 914.115479,911.643982 903.333618,915.544800 
	C901.558289,916.187073 899.869263,918.895386 899.368713,920.948486 
	C894.803650,939.671570 890.510803,958.461121 885.967651,978.035217 
z"/>
<path fill="#FAFAF9" opacity="1.000000" stroke="none" 
	d="
M138.000626,875.277161 
	C129.637405,895.376709 121.386688,915.109924 112.787308,935.677063 
	C115.401031,935.850891 117.122528,936.100952 118.836823,936.058716 
	C139.651672,935.546143 160.465836,935.004700 181.279251,934.436462 
	C186.620026,934.290710 191.901199,934.102722 196.361481,930.341187 
	C201.350754,926.133667 201.701935,919.262634 195.977295,916.205139 
	C191.819595,913.984558 186.575027,912.886597 181.812775,912.879822 
	C166.997055,912.858643 152.180481,913.604187 137.363434,914.023560 
	C136.059311,914.060486 134.749283,913.888794 132.774017,913.775757 
	C134.395386,907.312378 138.203781,903.128296 143.287216,899.696838 
	C148.830353,895.955261 155.131165,895.474060 161.419540,895.256042 
	C186.885468,894.373108 212.355865,893.598083 237.828949,892.955566 
	C245.198181,892.769653 251.477402,895.860107 256.428680,901.201477 
	C260.080963,905.141663 261.461456,909.299438 259.374390,915.204224 
	C253.559921,931.654968 248.578812,948.404846 243.458572,965.094910 
	C239.042694,979.489014 228.820221,988.794556 213.609634,989.629089 
	C189.670105,990.942505 165.677750,991.356445 141.702484,991.931091 
	C127.553482,992.270264 113.394051,992.287170 99.239845,992.248962 
	C91.888458,992.229065 85.725685,988.863342 80.357918,984.153564 
	C72.215530,977.009521 70.494827,967.924194 75.013748,958.020264 
	C80.186539,946.683167 85.325859,935.330627 90.428459,923.961792 
	C93.087547,918.037170 92.873123,918.196655 87.094589,915.722961 
	C84.277321,914.516907 80.049110,912.108704 79.959900,910.089966 
	C79.828445,907.115295 82.214111,903.351929 84.623108,901.092346 
	C88.837524,897.139221 94.278351,895.173096 100.263374,895.900452 
	C104.391708,896.402283 106.326866,894.775513 107.942543,890.831909 
	C112.158546,880.541443 116.753624,870.375549 121.791481,860.461792 
	C126.358665,851.474121 140.463486,844.133728 150.139816,845.544922 
	C146.076996,855.465210 142.095062,865.188049 138.000626,875.277161 
z"/>
<path fill="#F9F9F9" opacity="1.000000" stroke="none" 
	d="
M617.477844,907.369263 
	C619.366272,901.774170 622.687927,899.741455 628.502747,899.770386 
	C670.153992,899.977478 711.807007,899.805481 753.459473,899.814392 
	C763.695984,899.816589 767.895813,905.797668 765.195068,915.559692 
	C760.626587,932.072937 756.414368,948.684448 751.899048,965.212769 
	C750.720337,969.527283 749.060425,973.719360 747.471191,977.910706 
	C744.879761,984.745178 739.737793,988.281006 732.534241,988.336548 
	C709.044983,988.517639 685.554321,988.523499 662.064209,988.594543 
	C647.902527,988.637390 633.740845,988.696228 619.579163,988.698730 
	C616.918823,988.699158 614.232239,988.661926 611.602966,988.307007 
	C602.638428,987.097046 598.682922,982.215759 600.763000,973.525574 
	C606.028320,951.528198 611.783630,929.648193 617.477844,907.369263 
M647.818787,923.334534 
	C646.942017,926.828613 646.065247,930.322693 645.139038,934.013733 
	C646.222778,934.320374 646.820679,934.634399 647.420654,934.638367 
	C671.215027,934.794739 695.009766,934.988708 718.803589,934.906311 
	C720.383911,934.900879 722.794189,933.088806 723.382996,931.562988 
	C725.520508,926.024048 727.046631,920.249146 728.867004,914.356873 
	C727.829956,914.107300 727.217712,913.829102 726.606750,913.831909 
	C704.144592,913.935242 681.682190,914.024719 659.220581,914.210999 
	C650.674866,914.281860 650.675720,914.387085 647.818787,923.334534 
z"/>
<path fill="#F9F9F9" opacity="1.000000" stroke="none" 
	d="
M448.660858,907.624695 
	C451.710907,902.019287 456.481201,900.115845 462.151642,900.098633 
	C501.625671,899.978638 541.099915,899.862061 580.574036,899.855225 
	C588.304871,899.853882 593.375366,906.310181 591.649841,913.542847 
	C587.482483,931.011292 583.579529,948.550720 578.994324,965.909485 
	C573.168274,987.966492 568.528015,988.898804 549.734558,988.848694 
	C515.591553,988.757690 481.447357,989.004639 447.305206,988.818970 
	C443.178589,988.796448 438.733978,987.639038 435.020752,985.817261 
	C430.025452,983.366455 429.182281,978.474487 430.509491,973.298584 
	C434.765106,956.701843 438.976196,940.093018 443.388245,923.537781 
	C444.794312,918.261841 446.774353,913.138855 448.660858,907.624695 
M474.699432,934.116577 
	C475.313934,934.323792 475.927551,934.709412 476.543060,934.712402 
	C499.661377,934.825500 522.779846,934.926208 545.898254,934.912476 
	C546.969360,934.911804 548.712524,934.074158 549.002930,933.232849 
	C551.130798,927.068787 552.967407,920.804138 555.056152,914.053040 
	C551.137329,914.053040 548.002441,914.048706 544.867554,914.053711 
	C524.743469,914.085815 504.618958,914.068359 484.496216,914.247253 
	C482.807159,914.262207 480.084961,915.198914 479.625641,916.393127 
	C477.494232,921.934448 475.991852,927.717651 474.699432,934.116577 
z"/>
<path fill="#F8F8F7" opacity="1.000000" stroke="none" 
	d="
M887.001099,899.977112 
	C903.502563,899.975586 919.504028,899.975586 935.505493,899.975586 
	C935.545288,900.612854 935.585083,901.250122 935.624878,901.887390 
	C923.209717,905.795776 910.872437,909.986206 898.334412,913.449402 
	C894.306641,914.561951 889.738831,913.965515 885.436646,913.761047 
	C881.900269,913.593018 880.809814,914.985657 880.002930,918.397400 
	C874.987793,939.603027 869.540710,960.706116 864.440674,981.892273 
	C863.214966,986.983887 860.320312,989.190918 855.300659,989.134705 
	C847.646790,989.049011 839.973206,989.300598 832.344604,988.823242 
	C825.923523,988.421387 825.091675,987.046082 826.542847,980.893127 
	C831.507568,959.842468 836.593384,938.820251 841.611877,917.782227 
	C841.869812,916.700745 841.930847,915.572327 842.218079,913.491211 
	C836.543335,913.491211 831.262268,913.182373 826.066223,913.710327 
	C824.781189,913.840942 823.182739,916.536987 822.726868,918.310486 
	C817.714294,937.811462 812.899353,957.363220 808.030701,976.901245 
	C807.950195,977.224548 807.869995,977.547974 807.786743,977.870605 
	C805.149536,988.092407 803.700073,989.420410 793.121338,989.541687 
	C787.478394,989.606445 781.800232,989.224609 776.187622,988.598938 
	C770.402954,987.954102 769.378296,986.685608 770.675720,981.109741 
	C775.050293,962.309692 779.714478,943.577148 784.232178,924.810242 
	C785.672424,918.827393 787.009888,912.819763 788.378357,906.819824 
	C789.492615,901.934814 792.173340,899.718933 797.539917,899.762390 
	C827.192261,900.002563 856.847046,899.938416 887.001099,899.977112 
z"/>
<path fill="#FAFAF9" opacity="1.000000" stroke="none" 
	d="
M382.993744,988.742310 
	C348.035919,988.780762 313.576599,988.888916 279.118042,988.769409 
	C274.323608,988.752747 269.533081,987.614990 264.740723,986.996216 
	C264.669800,986.399109 264.598907,985.802002 264.527985,985.204834 
	C272.703949,976.079956 280.873138,966.948975 289.058136,957.832214 
	C294.839661,951.392578 300.478821,944.811096 306.539642,938.644897 
	C308.268951,936.885620 311.245880,935.416321 313.657532,935.405884 
	C344.120605,935.274597 374.584930,935.432495 405.048920,935.526428 
	C407.044647,935.532532 409.060150,935.456116 411.031799,935.699097 
	C416.236755,936.340576 418.070374,938.901428 416.621185,943.951843 
	C413.503052,954.818420 410.374298,965.689270 406.882263,976.439026 
	C403.346771,987.322510 401.880188,988.207458 390.482941,988.612488 
	C388.154205,988.695312 385.822723,988.699402 382.993744,988.742310 
z"/>
<path fill="#F9F9F9" opacity="1.000000" stroke="none" 
	d="
M273.221100,924.894653 
	C279.921906,901.317200 286.447723,878.111511 293.104828,854.943481 
	C296.233246,844.056030 296.347443,844.066467 307.861664,843.911377 
	C312.188599,843.853149 316.524933,843.766907 320.843414,843.974915 
	C327.860535,844.312744 330.551453,848.206909 328.696136,855.086426 
	C325.233337,867.926636 321.740540,880.758728 318.255554,893.592957 
	C315.075043,905.305786 311.944672,917.032776 308.654144,928.714661 
	C308.037598,930.903503 307.199890,933.291199 305.735352,934.939514 
	C291.804321,950.618225 277.717896,966.158875 263.660370,981.724976 
	C263.341309,982.078247 262.836273,982.263489 262.150482,982.695862 
	C259.198975,978.231628 260.684265,973.586365 261.748016,969.247437 
	C265.351685,954.548035 269.289703,939.930603 273.221100,924.894653 
z"/>
<path fill="#F8F8F7" opacity="1.000000" stroke="none" 
	d="
M886.052979,977.633179 
	C890.510803,958.461121 894.803650,939.671570 899.368713,920.948486 
	C899.869263,918.895386 901.558289,916.187073 903.333618,915.544800 
	C914.115479,911.643982 925.080322,908.248596 935.992126,904.709229 
	C936.584351,904.517151 937.248962,904.548340 938.669861,904.384583 
	C938.167053,907.334839 937.898010,909.921997 937.273743,912.420349 
	C931.475342,935.626831 925.540405,958.799438 919.834412,982.028381 
	C918.622742,986.960754 916.094543,989.681274 910.934448,989.493713 
	C903.976196,989.240723 897.023621,988.722656 890.064514,988.631226 
	C884.667786,988.560303 884.039673,985.732666 885.205750,981.442993 
	C885.510742,980.320923 885.716370,979.171875 886.052979,977.633179 
z"/>
<path fill="#090909" opacity="1.000000" stroke="none" 
	d="
M647.887573,922.941406 
	C650.675720,914.387085 650.674866,914.281860 659.220581,914.210999 
	C681.682190,914.024719 704.144592,913.935242 726.606750,913.831909 
	C727.217712,913.829102 727.829956,914.107300 728.867004,914.356873 
	C727.046631,920.249146 725.520508,926.024048 723.382996,931.562988 
	C722.794189,933.088806 720.383911,934.900879 718.803589,934.906311 
	C695.009766,934.988708 671.215027,934.794739 647.420654,934.638367 
	C646.820679,934.634399 646.222778,934.320374 645.139038,934.013733 
	C646.065247,930.322693 646.942017,926.828613 647.887573,922.941406 
z"/>
<path fill="#090909" opacity="1.000000" stroke="none" 
	d="
M474.481842,933.765381 
	C475.991852,927.717651 477.494232,921.934448 479.625641,916.393127 
	C480.084961,915.198914 482.807159,914.262207 484.496216,914.247253 
	C504.618958,914.068359 524.743469,914.085815 544.867554,914.053711 
	C548.002441,914.048706 551.137329,914.053040 555.056152,914.053040 
	C552.967407,920.804138 551.130798,927.068787 549.002930,933.232849 
	C548.712524,934.074158 546.969360,934.911804 545.898254,934.912476 
	C522.779846,934.926208 499.661377,934.825500 476.543060,934.712402 
	C475.927551,934.709412 475.313934,934.323792 474.481842,933.765381 
z"/>
</svg>