<svg version="1.1" id="Layer_1" xmlns="http://www.w3.org/2000/svg" xmlns:xlink="http://www.w3.org/1999/xlink" x="0px" y="0px"
	 width="100%" viewBox="0 0 1125 1839" enable-background="new 0 0 1125 1839" xml:space="preserve">
<path fill="#FFFFFF" opacity="1.000000" stroke="none" 
	d="
M947.000000,1840.000000 
	C631.333374,1840.000000 316.166779,1840.000000 1.000127,1840.000000 
	C1.000085,1227.000122 1.000085,614.000305 1.000042,1.000374 
	C375.999756,1.000249 750.999512,1.000249 1125.999512,1.000125 
	C1125.999634,613.999695 1125.999634,1226.999390 1125.999756,1839.999512 
	C1066.500000,1840.000000 1007.000000,1840.000000 947.000000,1840.000000 
M138.113495,874.910950 
	C142.095749,865.187317 146.078018,855.463623 150.140549,845.543945 
	C140.481583,844.124084 126.358200,851.468933 121.791267,860.453918 
	C116.752319,870.367432 112.158585,880.534424 107.942818,890.825317 
	C106.328285,894.766357 104.401222,896.402344 100.267891,895.899841 
	C94.284157,895.172424 88.840981,897.133606 84.625740,901.087585 
	C82.215775,903.348083 79.828156,907.108887 79.956596,910.085205 
	C80.043678,912.102905 84.270531,914.516724 87.087265,915.721619 
	C92.870895,918.195496 93.086945,918.036926 90.427811,923.962219 
	C85.325630,935.331238 80.186531,946.683899 75.012596,958.020447 
	C70.492424,967.924438 72.211868,977.006104 80.356781,984.153992 
	C85.724480,988.864685 91.887650,992.229858 99.239143,992.249634 
	C113.393593,992.287720 127.553268,992.270142 141.702515,991.930908 
	C165.678192,991.356201 189.671097,990.944153 213.610855,989.628540 
	C228.830994,988.792114 239.046234,979.489075 243.461166,965.093872 
	C248.580200,948.403015 253.561600,931.652710 259.375610,915.201416 
	C261.462494,909.296265 260.081512,905.134399 256.429199,901.197449 
	C251.477417,895.859802 245.195587,892.767090 237.827225,892.952148 
	C212.520309,893.587280 187.216003,894.354370 161.916428,895.235657 
	C155.467514,895.460205 148.987762,895.849609 143.285217,899.703003 
	C138.197266,903.141113 134.398468,907.324097 132.760208,913.782593 
	C134.736786,913.894836 136.046371,914.065491 137.350067,914.028442 
	C152.167221,913.607849 166.983032,912.892090 181.800232,912.867249 
	C186.425125,912.859436 191.536148,913.777344 195.567963,915.899292 
	C201.822235,919.190857 201.973358,926.954712 195.824585,930.392761 
	C191.557816,932.778503 186.212967,934.069763 181.280914,934.287109 
	C160.482849,935.203491 139.659241,935.544495 118.844002,936.057068 
	C117.129082,936.099304 115.406975,935.850220 112.788208,935.676941 
	C121.387352,915.109985 129.637894,895.376770 138.113495,874.910950 
M754.376160,956.253784 
	C757.952087,942.748169 761.372864,929.198853 765.154907,915.751221 
	C767.968811,905.746033 763.731873,899.808594 753.160278,899.809631 
	C711.846069,899.813660 670.531860,899.853027 629.217651,899.900513 
	C621.036499,899.909973 619.243103,900.747253 617.122437,908.721375 
	C611.352417,930.417297 605.869324,952.194641 600.663147,974.032837 
	C598.767517,981.984070 602.447266,986.814514 610.633362,988.130920 
	C614.548767,988.760559 618.599731,988.684692 622.589539,988.689697 
	C640.081238,988.711609 657.573059,988.662048 675.064758,988.608093 
	C694.220764,988.549011 713.377380,988.532898 732.532104,988.339355 
	C739.735840,988.266541 744.995117,984.788757 747.441223,977.906982 
	C749.887390,971.025330 751.942261,964.004578 754.376160,956.253784 
M521.500305,988.635620 
	C530.832336,988.694336 540.164734,988.720398 549.496338,988.818726 
	C568.277893,989.016602 573.111328,988.388306 579.068726,965.637573 
	C583.619324,948.259155 587.574890,930.723694 591.697754,913.235168 
	C593.279602,906.525085 588.292725,900.148865 581.254883,899.864746 
	C576.763977,899.683411 572.257935,899.890686 567.758667,899.898438 
	C532.929749,899.958435 498.100708,900.074036 463.271942,900.022522 
	C455.054932,900.010315 449.572021,903.497070 446.964325,911.261902 
	C445.590393,915.353088 444.392212,919.511536 443.303345,923.688721 
	C438.979340,940.277222 434.539001,956.839233 430.534607,973.505554 
	C428.597198,981.568970 432.797668,987.202393 441.046631,988.475220 
	C444.152679,988.954346 447.354401,988.947510 450.511841,988.938049 
	C473.841370,988.868103 497.170715,988.741455 521.500305,988.635620 
M886.500977,899.975342 
	C856.847290,899.935486 827.192688,899.999756 797.540649,899.760010 
	C792.175415,899.716675 789.492310,901.929077 788.378662,906.816345 
	C787.011475,912.816528 785.673523,918.824097 784.233276,924.806763 
	C779.715576,943.573303 775.051331,962.305359 770.676636,981.104919 
	C769.378235,986.684692 770.399170,987.951721 776.182373,988.598328 
	C781.794617,989.225830 787.472717,989.605347 793.115784,989.541626 
	C803.697144,989.422302 805.146423,988.096375 807.787354,977.877625 
	C807.870728,977.555054 807.951416,977.231750 808.031921,976.908447 
	C812.899780,957.370483 817.713928,937.818604 822.725403,918.317566 
	C823.181763,916.541809 824.777161,913.840271 826.061523,913.709534 
	C831.257019,913.180786 836.537903,913.490112 842.210938,913.490112 
	C841.925049,915.579041 841.866150,916.706665 841.608521,917.786865 
	C836.590820,938.824951 831.504883,959.846985 826.541687,980.897888 
	C825.079712,987.098755 825.851685,988.392273 832.349609,988.810242 
	C839.976440,989.300842 847.650574,989.048767 855.303894,989.136597 
	C860.323914,989.194214 863.217041,986.980469 864.442261,981.890930 
	C869.542297,960.704956 874.989685,939.602234 880.002075,918.396240 
	C880.810486,914.976135 881.917969,913.600403 885.441711,913.762390 
	C889.744141,913.960266 894.310974,914.562805 898.337952,913.450134 
	C910.875244,909.986145 923.211548,905.794678 935.625793,901.885376 
	C935.585876,901.247681 935.545898,900.610046 935.505920,899.972351 
	C919.504272,899.972351 903.502625,899.972351 886.500977,899.975342 
M383.492554,988.739563 
	C385.822784,988.699341 388.154297,988.695312 390.483032,988.612732 
	C401.880096,988.208679 403.350708,987.320923 406.884033,976.440918 
	C410.375244,965.690735 413.503540,954.819458 416.620941,943.952515 
	C418.069794,938.901978 416.236053,936.340393 411.032104,935.698547 
	C409.060425,935.455322 407.044922,935.531555 405.049164,935.525391 
	C374.584869,935.431885 344.120209,935.274353 313.656799,935.405945 
	C311.245239,935.416443 308.268646,936.886353 306.539246,938.645813 
	C300.478394,944.812134 294.839264,951.393677 289.057587,957.833374 
	C280.870850,966.951904 272.699799,976.084534 264.522064,985.211121 
	C264.595123,985.804932 264.668152,986.398743 264.741211,986.992493 
	C269.533051,987.612427 274.323120,988.752197 279.117035,988.768921 
	C313.575958,988.888794 348.035614,988.780640 383.492554,988.739563 
M273.096161,925.287964 
	C269.285034,939.937805 265.343842,954.555725 261.743073,969.257080 
	C260.681458,973.591553 259.177765,978.239746 262.164276,982.693542 
	C262.840179,982.265320 263.343719,982.078552 263.662842,981.725220 
	C277.721375,966.157837 291.808899,950.616028 305.740814,934.935974 
	C307.205414,933.287537 308.041992,930.898987 308.658752,928.709778 
	C311.949982,917.027222 315.081818,905.299683 318.262543,893.585999 
	C321.747803,880.750793 325.240509,867.917480 328.702209,855.075928 
	C330.553589,848.207947 327.852509,844.308167 320.835815,843.969055 
	C316.517059,843.760376 312.180328,843.849060 307.853058,843.906921 
	C296.347809,844.060730 296.232788,844.049683 293.101135,854.947021 
	C286.442719,878.116516 279.916656,901.324036 273.096161,925.287964 
M885.962402,978.065674 
	C885.715088,979.203247 885.523132,980.356262 885.210571,981.475647 
	C883.999634,985.812134 884.749878,988.562744 890.093018,988.637146 
	C897.052429,988.734009 904.005127,989.240173 910.963623,989.491577 
	C916.137085,989.678467 918.630920,986.923218 919.839783,982.002075 
	C925.545776,958.772705 931.481506,935.599792 937.279724,912.392883 
	C937.902344,909.900940 938.163818,907.318726 938.723572,904.003723 
	C936.229614,904.725281 934.659241,905.130859 933.120239,905.632568 
	C923.636108,908.724609 914.201294,911.977905 904.656555,914.868530 
	C901.355347,915.868347 899.924255,917.579346 899.175476,920.928650 
	C894.970154,939.736450 890.506592,958.486450 885.962402,978.065674 
z"/>
<path fill="#050506" opacity="1.000000" stroke="none" 
	d="
M138.000977,875.277222 
	C129.637894,895.376770 121.387352,915.109985 112.788208,935.676941 
	C115.406975,935.850220 117.129082,936.099304 118.844002,936.057068 
	C139.659241,935.544495 160.482849,935.203491 181.280914,934.287109 
	C186.212967,934.069763 191.557816,932.778503 195.824585,930.392761 
	C201.973358,926.954712 201.822235,919.190857 195.567963,915.899292 
	C191.536148,913.777344 186.425125,912.859436 181.800232,912.867249 
	C166.983032,912.892090 152.167221,913.607849 137.350067,914.028442 
	C136.046371,914.065491 134.736786,913.894836 132.760208,913.782593 
	C134.398468,907.324097 138.197266,903.141113 143.285217,899.703003 
	C148.987762,895.849609 155.467514,895.460205 161.916428,895.235657 
	C187.216003,894.354370 212.520309,893.587280 237.827225,892.952148 
	C245.195587,892.767090 251.477417,895.859802 256.429199,901.197449 
	C260.081512,905.134399 261.462494,909.296265 259.375610,915.201416 
	C253.561600,931.652710 248.580200,948.403015 243.461166,965.093872 
	C239.046234,979.489075 228.830994,988.792114 213.610855,989.628540 
	C189.671097,990.944153 165.678192,991.356201 141.702515,991.930908 
	C127.553268,992.270142 113.393593,992.287720 99.239143,992.249634 
	C91.887650,992.229858 85.724480,988.864685 80.356781,984.153992 
	C72.211868,977.006104 70.492424,967.924438 75.012596,958.020447 
	C80.186531,946.683899 85.325630,935.331238 90.427811,923.962219 
	C93.086945,918.036926 92.870895,918.195496 87.087265,915.721619 
	C84.270531,914.516724 80.043678,912.102905 79.956596,910.085205 
	C79.828156,907.108887 82.215775,903.348083 84.625740,901.087585 
	C88.840981,897.133606 94.284157,895.172424 100.267891,895.899841 
	C104.401222,896.402344 106.328285,894.766357 107.942818,890.825317 
	C112.158585,880.534424 116.752319,870.367432 121.791267,860.453918 
	C126.358200,851.468933 140.481583,844.124084 150.140549,845.543945 
	C146.078018,855.463623 142.095749,865.187317 138.000977,875.277222 
z"/>
<path fill="#060606" opacity="1.000000" stroke="none" 
	d="
M754.272400,956.649292 
	C751.942261,964.004578 749.887390,971.025330 747.441223,977.906982 
	C744.995117,984.788757 739.735840,988.266541 732.532104,988.339355 
	C713.377380,988.532898 694.220764,988.549011 675.064758,988.608093 
	C657.573059,988.662048 640.081238,988.711609 622.589539,988.689697 
	C618.599731,988.684692 614.548767,988.760559 610.633362,988.130920 
	C602.447266,986.814514 598.767517,981.984070 600.663147,974.032837 
	C605.869324,952.194641 611.352417,930.417297 617.122437,908.721375 
	C619.243103,900.747253 621.036499,899.909973 629.217651,899.900513 
	C670.531860,899.853027 711.846069,899.813660 753.160278,899.809631 
	C763.731873,899.808594 767.968811,905.746033 765.154907,915.751221 
	C761.372864,929.198853 757.952087,942.748169 754.272400,956.649292 
M647.818665,923.334412 
	C646.941772,926.828613 646.064880,930.322815 645.138611,934.013733 
	C646.221313,934.320557 646.819214,934.635193 647.419128,934.639221 
	C671.214050,934.795410 695.009338,934.989136 718.803650,934.906433 
	C720.384033,934.900940 722.794434,933.088928 723.383301,931.563110 
	C725.521057,926.023987 727.047241,920.248840 728.867798,914.356628 
	C727.834473,914.108032 727.220581,913.829224 726.607971,913.832031 
	C704.145325,913.935120 681.682434,914.024475 659.220337,914.210205 
	C650.675598,914.280884 650.676453,914.385559 647.818665,923.334412 
z"/>
<path fill="#060606" opacity="1.000000" stroke="none" 
	d="
M521.000244,988.634155 
	C497.170715,988.741455 473.841370,988.868103 450.511841,988.938049 
	C447.354401,988.947510 444.152679,988.954346 441.046631,988.475220 
	C432.797668,987.202393 428.597198,981.568970 430.534607,973.505554 
	C434.539001,956.839233 438.979340,940.277222 443.303345,923.688721 
	C444.392212,919.511536 445.590393,915.353088 446.964325,911.261902 
	C449.572021,903.497070 455.054932,900.010315 463.271942,900.022522 
	C498.100708,900.074036 532.929749,899.958435 567.758667,899.898438 
	C572.257935,899.890686 576.763977,899.683411 581.254883,899.864746 
	C588.292725,900.148865 593.279602,906.525085 591.697754,913.235168 
	C587.574890,930.723694 583.619324,948.259155 579.068726,965.637573 
	C573.111328,988.388306 568.277893,989.016602 549.496338,988.818726 
	C540.164734,988.720398 530.832336,988.694336 521.000244,988.634155 
M474.698425,934.116821 
	C475.312927,934.324158 475.926575,934.709961 476.542084,934.712952 
	C499.660950,934.825928 522.779968,934.926636 545.898926,934.912720 
	C546.969788,934.912109 548.712585,934.074158 549.002991,933.232910 
	C551.130798,927.068604 552.967529,920.803772 555.056274,914.052856 
	C551.135681,914.052856 548.002258,914.048584 544.868835,914.053528 
	C524.744263,914.085449 504.619293,914.067871 484.496063,914.246643 
	C482.807007,914.261597 480.085022,915.198608 479.625641,916.392944 
	C477.494171,921.934326 475.991577,927.717651 474.698425,934.116821 
z"/>
<path fill="#070707" opacity="1.000000" stroke="none" 
	d="
M887.000977,899.973877 
	C903.502625,899.972351 919.504272,899.972351 935.505920,899.972351 
	C935.545898,900.610046 935.585876,901.247681 935.625793,901.885376 
	C923.211548,905.794678 910.875244,909.986145 898.337952,913.450134 
	C894.310974,914.562805 889.744141,913.960266 885.441711,913.762390 
	C881.917969,913.600403 880.810486,914.976135 880.002075,918.396240 
	C874.989685,939.602234 869.542297,960.704956 864.442261,981.890930 
	C863.217041,986.980469 860.323914,989.194214 855.303894,989.136597 
	C847.650574,989.048767 839.976440,989.300842 832.349609,988.810242 
	C825.851685,988.392273 825.079712,987.098755 826.541687,980.897888 
	C831.504883,959.846985 836.590820,938.824951 841.608521,917.786865 
	C841.866150,916.706665 841.925049,915.579041 842.210938,913.490112 
	C836.537903,913.490112 831.257019,913.180786 826.061523,913.709534 
	C824.777161,913.840271 823.181763,916.541809 822.725403,918.317566 
	C817.713928,937.818604 812.899780,957.370483 808.031921,976.908447 
	C807.951416,977.231750 807.870728,977.555054 807.787354,977.877625 
	C805.146423,988.096375 803.697144,989.422302 793.115784,989.541626 
	C787.472717,989.605347 781.794617,989.225830 776.182373,988.598328 
	C770.399170,987.951721 769.378235,986.684692 770.676636,981.104919 
	C775.051331,962.305359 779.715576,943.573303 784.233276,924.806763 
	C785.673523,918.824097 787.011475,912.816528 788.378662,906.816345 
	C789.492310,901.929077 792.175415,899.716675 797.540649,899.760010 
	C827.192688,899.999756 856.847290,899.935486 887.000977,899.973877 
z"/>
<path fill="#050505" opacity="1.000000" stroke="none" 
	d="
M382.993805,988.742188 
	C348.035614,988.780640 313.575958,988.888794 279.117035,988.768921 
	C274.323120,988.752197 269.533051,987.612427 264.741211,986.992493 
	C264.668152,986.398743 264.595123,985.804932 264.522064,985.211121 
	C272.699799,976.084534 280.870850,966.951904 289.057587,957.833374 
	C294.839264,951.393677 300.478394,944.812134 306.539246,938.645813 
	C308.268646,936.886353 311.245239,935.416443 313.656799,935.405945 
	C344.120209,935.274353 374.584869,935.431885 405.049164,935.525391 
	C407.044922,935.531555 409.060425,935.455322 411.032104,935.698547 
	C416.236053,936.340393 418.069794,938.901978 416.620941,943.952515 
	C413.503540,954.819458 410.375244,965.690735 406.884033,976.440918 
	C403.350708,987.320923 401.880096,988.208679 390.483032,988.612732 
	C388.154297,988.695312 385.822784,988.699341 382.993805,988.742188 
z"/>
<path fill="#060607" opacity="1.000000" stroke="none" 
	d="
M273.216248,924.901978 
	C279.916656,901.324036 286.442719,878.116516 293.101135,854.947021 
	C296.232788,844.049683 296.347809,844.060730 307.853058,843.906921 
	C312.180328,843.849060 316.517059,843.760376 320.835815,843.969055 
	C327.852509,844.308167 330.553589,848.207947 328.702209,855.075928 
	C325.240509,867.917480 321.747803,880.750793 318.262543,893.585999 
	C315.081818,905.299683 311.949982,917.027222 308.658752,928.709778 
	C308.041992,930.898987 307.205414,933.287537 305.740814,934.935974 
	C291.808899,950.616028 277.721375,966.157837 263.662842,981.725220 
	C263.343719,982.078552 262.840179,982.265320 262.164276,982.693542 
	C259.177765,978.239746 260.681458,973.591553 261.743073,969.257080 
	C265.343842,954.555725 269.285034,939.937805 273.216248,924.901978 
z"/>
<path fill="#070707" opacity="1.000000" stroke="none" 
	d="
M886.046753,977.660950 
	C890.506592,958.486450 894.970154,939.736450 899.175476,920.928650 
	C899.924255,917.579346 901.355347,915.868347 904.656555,914.868530 
	C914.201294,911.977905 923.636108,908.724609 933.120239,905.632568 
	C934.659241,905.130859 936.229614,904.725281 938.723572,904.003723 
	C938.163818,907.318726 937.902344,909.900940 937.279724,912.392883 
	C931.481506,935.599792 925.545776,958.772705 919.839783,982.002075 
	C918.630920,986.923218 916.137085,989.678467 910.963623,989.491577 
	C904.005127,989.240173 897.052429,988.734009 890.093018,988.637146 
	C884.749878,988.562744 883.999634,985.812134 885.210571,981.475647 
	C885.523132,980.356262 885.715088,979.203247 886.046753,977.660950 
z"/>
<path fill="#F6F6F6" opacity="1.000000" stroke="none" 
	d="
M647.887451,922.941284 
	C650.676453,914.385559 650.675598,914.280884 659.220337,914.210205 
	C681.682434,914.024475 704.145325,913.935120 726.607971,913.832031 
	C727.220581,913.829224 727.834473,914.108032 728.867798,914.356628 
	C727.047241,920.248840 725.521057,926.023987 723.383301,931.563110 
	C722.794434,933.088928 720.384033,934.900940 718.803650,934.906433 
	C695.009338,934.989136 671.214050,934.795410 647.419128,934.639221 
	C646.819214,934.635193 646.221313,934.320557 645.138611,934.013733 
	C646.064880,930.322815 646.941772,926.828613 647.887451,922.941284 
z"/>
<path fill="#F6F6F6" opacity="1.000000" stroke="none" 
	d="
M474.481140,933.765564 
	C475.991577,927.717651 477.494171,921.934326 479.625641,916.392944 
	C480.085022,915.198608 482.807007,914.261597 484.496063,914.246643 
	C504.619293,914.067871 524.744263,914.085449 544.868835,914.053528 
	C548.002258,914.048584 551.135681,914.052856 555.056274,914.052856 
	C552.967529,920.803772 551.130798,927.068604 549.002991,933.232910 
	C548.712585,934.074158 546.969788,934.912109 545.898926,934.912720 
	C522.779968,934.926636 499.660950,934.825928 476.542084,934.712952 
	C475.926575,934.709961 475.312927,934.324158 474.481140,933.765564 
z"/>
</svg>